<svg width="113" height="25" viewBox="0 0 113 25" fill="none" xmlns="http://www.w3.org/2000/svg">
<path d="M30.966 17.2912H29V7.63468H30.966V11.5H34.8911V7.63468H36.8571V17.2912H34.8911V13.4327H30.966V17.2912Z" fill="black"/>
<path d="M49.7133 12.5034C49.7133 12.9613 49.6517 13.4035 49.5284 13.83C49.4096 14.252 49.2407 14.6493 49.0215 15.0219C48.8023 15.39 48.5374 15.7267 48.2269 16.032C47.9163 16.3373 47.5738 16.5999 47.1993 16.8199C46.8249 17.0354 46.4207 17.2015 45.9869 17.3182C45.553 17.4394 45.1032 17.5 44.6374 17.5C44.1716 17.5 43.7218 17.4394 43.2879 17.3182C42.8587 17.2015 42.4545 17.0354 42.0755 16.8199C41.701 16.5999 41.3585 16.3373 41.0479 16.032C40.7374 15.7267 40.4703 15.39 40.2465 15.0219C40.0273 14.6493 39.856 14.252 39.7327 13.83C39.614 13.4035 39.5546 12.9613 39.5546 12.5034C39.5546 12.0455 39.614 11.6033 39.7327 11.1768C39.856 10.7503 40.0273 10.353 40.2465 9.98485C40.4703 9.61672 40.7374 9.28002 41.0479 8.97475C41.3585 8.66947 41.701 8.40909 42.0755 8.1936C42.4545 7.97811 42.8587 7.81201 43.2879 7.69529C43.7218 7.57407 44.1716 7.51347 44.6374 7.51347C45.1032 7.51347 45.553 7.57407 45.9869 7.69529C46.4207 7.81201 46.8249 7.97811 47.1993 8.1936C47.5738 8.40909 47.9163 8.66947 48.2269 8.97475C48.5374 9.28002 48.8023 9.61672 49.0215 9.98485C49.2407 10.353 49.4096 10.7503 49.5284 11.1768C49.6517 11.6033 49.7133 12.0455 49.7133 12.5034ZM47.761 12.5034C47.761 12.0814 47.6788 11.6841 47.5144 11.3114C47.35 10.9343 47.1263 10.6089 46.8431 10.335C46.5646 10.0567 46.2335 9.8367 45.8499 9.67508C45.4708 9.51347 45.0667 9.43266 44.6374 9.43266C44.2036 9.43266 43.7971 9.51347 43.4181 9.67508C43.039 9.8367 42.708 10.0567 42.4248 10.335C42.1417 10.6089 41.9179 10.9343 41.7535 11.3114C41.5891 11.6841 41.5069 12.0814 41.5069 12.5034C41.5069 12.9254 41.5891 13.3227 41.7535 13.6953C41.9179 14.0634 42.1417 14.3866 42.4248 14.665C42.708 14.9433 43.039 15.1633 43.4181 15.3249C43.7971 15.4865 44.2036 15.5673 44.6374 15.5673C45.0667 15.5673 45.4708 15.4865 45.8499 15.3249C46.2335 15.1633 46.5646 14.9433 46.8431 14.665C47.1263 14.3866 47.35 14.0634 47.5144 13.6953C47.6788 13.3227 47.761 12.9254 47.761 12.5034Z" fill="black"/>
<path d="M62.0353 12.5034C62.0353 12.9613 61.9736 13.4035 61.8503 13.83C61.7316 14.252 61.5626 14.6493 61.3434 15.0219C61.1242 15.39 60.8593 15.7267 60.5488 16.032C60.2383 16.3373 59.8958 16.5999 59.5213 16.8199C59.1468 17.0354 58.7427 17.2015 58.3088 17.3182C57.875 17.4394 57.4252 17.5 56.9594 17.5C56.4935 17.5 56.0437 17.4394 55.6099 17.3182C55.1806 17.2015 54.7765 17.0354 54.3974 16.8199C54.0229 16.5999 53.6804 16.3373 53.3699 16.032C53.0594 15.7267 52.7922 15.39 52.5684 15.0219C52.3492 14.6493 52.178 14.252 52.0547 13.83C51.9359 13.4035 51.8766 12.9613 51.8766 12.5034C51.8766 12.0455 51.9359 11.6033 52.0547 11.1768C52.178 10.7503 52.3492 10.353 52.5684 9.98485C52.7922 9.61672 53.0594 9.28002 53.3699 8.97475C53.6804 8.66947 54.0229 8.40909 54.3974 8.1936C54.7765 7.97811 55.1806 7.81201 55.6099 7.69529C56.0437 7.57407 56.4935 7.51347 56.9594 7.51347C57.4252 7.51347 57.875 7.57407 58.3088 7.69529C58.7427 7.81201 59.1468 7.97811 59.5213 8.1936C59.8958 8.40909 60.2383 8.66947 60.5488 8.97475C60.8593 9.28002 61.1242 9.61672 61.3434 9.98485C61.5626 10.353 61.7316 10.7503 61.8503 11.1768C61.9736 11.6033 62.0353 12.0455 62.0353 12.5034ZM60.083 12.5034C60.083 12.0814 60.0008 11.6841 59.8364 11.3114C59.672 10.9343 59.4482 10.6089 59.1651 10.335C58.8865 10.0567 58.5554 9.8367 58.1718 9.67508C57.7928 9.51347 57.3886 9.43266 56.9594 9.43266C56.5255 9.43266 56.1191 9.51347 55.74 9.67508C55.361 9.8367 55.0299 10.0567 54.7468 10.335C54.4636 10.6089 54.2399 10.9343 54.0755 11.3114C53.9111 11.6841 53.8289 12.0814 53.8289 12.5034C53.8289 12.9254 53.9111 13.3227 54.0755 13.6953C54.2399 14.0634 54.4636 14.3866 54.7468 14.665C55.0299 14.9433 55.361 15.1633 55.74 15.3249C56.1191 15.4865 56.5255 15.5673 56.9594 15.5673C57.3886 15.5673 57.7928 15.4865 58.1718 15.3249C58.5554 15.1633 58.8865 14.9433 59.1651 14.665C59.4482 14.3866 59.672 14.0634 59.8364 13.6953C60.0008 13.3227 60.083 12.9254 60.083 12.5034Z" fill="black"/>
<path d="M66.6988 17.2912H64.7328V7.63468H66.6988V12.463L70.3568 7.63468H72.5899L69.4868 11.7088L72.5899 17.2912H70.3568L68.199 13.3855L66.6988 15.3586V17.2912Z" fill="black"/>
<path d="M82.7746 12.463C82.7746 12.9074 82.7153 13.3361 82.5965 13.7492C82.4824 14.1577 82.318 14.5415 82.1033 14.9007C81.8887 15.2553 81.6329 15.5808 81.3361 15.8771C81.0393 16.1689 80.7082 16.4203 80.3428 16.6313C79.9775 16.8423 79.5848 17.0062 79.1646 17.1229C78.7491 17.2351 78.3152 17.2912 77.8631 17.2912H74.9039V7.63468H77.8631C78.3152 7.63468 78.7491 7.69304 79.1646 7.80976C79.5848 7.922 79.9775 8.08361 80.3428 8.29461C80.7082 8.50561 81.0393 8.75926 81.3361 9.05556C81.6329 9.34736 81.8887 9.67284 82.1033 10.032C82.318 10.3866 82.4824 10.7705 82.5965 11.1835C82.7153 11.592 82.7746 12.0185 82.7746 12.463ZM80.8086 12.463C80.8086 12.0634 80.731 11.6886 80.5757 11.3384C80.425 10.9882 80.215 10.6829 79.9455 10.4226C79.6807 10.1577 79.3678 9.94893 79.0071 9.7963C78.6509 9.64366 78.2695 9.56734 77.8631 9.56734H76.8835V15.3586H77.8631C78.2695 15.3586 78.6509 15.2845 79.0071 15.1364C79.3678 14.9837 79.6807 14.7772 79.9455 14.5168C80.215 14.252 80.425 13.9444 80.5757 13.5943C80.731 13.2396 80.8086 12.8625 80.8086 12.463Z" fill="black"/>
<path d="M92.2195 17.2912H85.4859V7.63468H92.2195V9.56734H87.4519V11.5H90.6783V13.4327H87.4519V15.3586H92.2195V17.2912Z" fill="black"/>
<path d="M102.596 16.3013C102.139 16.6874 101.628 16.9837 101.062 17.1902C100.495 17.3967 99.9085 17.5 99.3012 17.5C98.8354 17.5 98.3855 17.4394 97.9517 17.3182C97.5224 17.2015 97.1183 17.0354 96.7392 16.8199C96.3648 16.5999 96.0223 16.3373 95.7117 16.032C95.4012 15.7267 95.134 15.39 94.9103 15.0219C94.6911 14.6493 94.5198 14.252 94.3965 13.83C94.2778 13.4035 94.2184 12.9613 94.2184 12.5034C94.2184 12.0455 94.2778 11.6033 94.3965 11.1768C94.5198 10.7503 94.6911 10.353 94.9103 9.98485C95.134 9.61223 95.4012 9.27329 95.7117 8.96801C96.0223 8.66274 96.3648 8.40236 96.7392 8.18687C97.1183 7.96689 97.5224 7.79854 97.9517 7.68182C98.3855 7.56061 98.8354 7.5 99.3012 7.5C99.9085 7.5 100.495 7.60325 101.062 7.80976C101.628 8.01178 102.139 8.30808 102.596 8.69865L101.555 10.3822C101.267 10.0769 100.927 9.84343 100.534 9.68182C100.141 9.51571 99.7304 9.43266 99.3012 9.43266C98.8673 9.43266 98.4609 9.51347 98.0819 9.67508C97.7028 9.8367 97.3717 10.0567 97.0886 10.335C96.8055 10.6089 96.5817 10.9343 96.4173 11.3114C96.2529 11.6841 96.1707 12.0814 96.1707 12.5034C96.1707 12.9254 96.2529 13.3227 96.4173 13.6953C96.5817 14.0634 96.8055 14.3866 97.0886 14.665C97.3717 14.9433 97.7028 15.1633 98.0819 15.3249C98.4609 15.4865 98.8673 15.5673 99.3012 15.5673C99.7304 15.5673 100.141 15.4865 100.534 15.3249C100.927 15.1588 101.267 14.9231 101.555 14.6178L102.596 16.3013Z" fill="black"/>
<path d="M107.109 17.2912H105.143V7.63468H107.109V12.463L110.767 7.63468H113L109.897 11.7088L113 17.2912H110.767L108.609 13.3855L107.109 15.3586V17.2912Z" fill="black"/>
<path d="M7 2.18557e-07C4.26528 2.18557e-07 1.96289 2.24711 1.5 5L1.5 19.3568H3.5C3.5 19.3568 3.5 8.0416 3.5 5.87755C3.5 3.7135 4.9545 2 7 2C9.0455 2 11 3.7135 11 5.87755C11 8.0416 11 8 11 8C11 8.41086 10.5736 8.31589 10.1643 8.27981L8.82225 8.16149C8.06155 8.09442 7.75844 9.12047 8.43347 9.47754L11.7503 11.2321C12.2165 11.4787 13 11.1407 13 10.6133V5.87755C13 2.63147 10.0682 2.18557e-07 7 2.18557e-07Z" fill="black"/>
<path fill-rule="evenodd" clip-rule="evenodd" d="M2.5 22.9143C3.14433 22.9143 3.66667 22.377 3.66667 21.7143C3.66667 21.0516 3.14433 20.5143 2.5 20.5143C1.85567 20.5143 1.33333 21.0516 1.33333 21.7143C1.33333 22.377 1.85567 22.9143 2.5 22.9143ZM2.5 24.2857C3.88071 24.2857 5 23.1345 5 21.7143C5 20.2941 3.88071 19.1429 2.5 19.1429C1.11929 19.1429 0 20.2941 0 21.7143C0 23.1345 1.11929 24.2857 2.5 24.2857Z" fill="black"/>
<path d="M14 24.2857C16.7347 24.2857 19.0371 22.0386 19.5 19.2857V4.92889H17.5C17.5 4.92889 17.5 16.2441 17.5 18.4082C17.5 20.5722 16.0455 22.2857 14 22.2857C11.9545 22.2857 10 20.5722 10 18.4082C10 16.2441 10 16.2857 10 16.2857C10 15.8749 10.4264 15.9698 10.8357 16.0059L12.1777 16.1242C12.9385 16.1913 13.2416 15.1653 12.5665 14.8082L9.2497 13.0536C8.78351 12.807 8 13.145 8 13.6724V18.4082C8 21.6543 10.9318 24.2857 14 24.2857Z" fill="black"/>
<path fill-rule="evenodd" clip-rule="evenodd" d="M18.5 1.37143C17.8557 1.37143 17.3333 1.90869 17.3333 2.57143C17.3333 3.23417 17.8557 3.77143 18.5 3.77143C19.1443 3.77143 19.6667 3.23417 19.6667 2.57143C19.6667 1.90869 19.1443 1.37143 18.5 1.37143ZM18.5 0C17.1193 -1.20706e-07 16 1.15127 16 2.57143C16 3.99159 17.1193 5.14286 18.5 5.14286C19.8807 5.14286 21 3.99159 21 2.57143C21 1.15127 19.8807 1.20706e-07 18.5 0Z" fill="black"/>
</svg>
